<svg width="26" height="24" viewBox="0 0 26 24" fill="none" xmlns="http://www.w3.org/2000/svg">
<path d="M13.1762 0C8.10378 0 3.99121 4.02975 3.99121 9C3.99121 10.9571 4.64602 12.753 5.73444 14.2238C5.75396 14.259 5.75702 14.2984 5.77922 14.3321L11.9025 23.3321C12.1865 23.7495 12.6649 24 13.1762 24C13.6875 24 14.1659 23.7495 14.4498 23.3321L20.5732 14.3321C20.5957 14.2984 20.5984 14.259 20.6179 14.2238C21.7063 12.753 22.3612 10.9571 22.3612 9C22.3612 4.02975 18.2486 0 13.1762 0ZM13.1762 12C11.4854 12 10.1145 10.6567 10.1145 9C10.1145 7.34325 11.4854 6 13.1762 6C14.867 6 16.2378 7.34325 16.2378 9C16.2378 10.6567 14.867 12 13.1762 12Z" fill="white"/>
</svg>
