<svg width="44" height="44" viewBox="0 0 44 44" fill="none" xmlns="http://www.w3.org/2000/svg">
<g clip-path="url(#clip0_303_3696)">
<path d="M35.2 8.06657L5.31667 19.6166C3.3 20.3499 3.3 21.6332 4.95 21.9999L12.4667 24.3832L15.4 33.1832C15.7667 34.0999 15.5833 34.4666 16.5 34.4666C17.2333 34.4666 17.6 34.0999 17.9667 33.7332C18.15 33.5499 19.8 31.8999 21.6333 30.0666L29.3333 35.7499C30.8 36.4832 31.7167 36.1166 32.0833 34.4666L37.2167 10.4499C37.7667 8.43324 36.4833 7.33324 35.2 8.06657ZM31.35 13.5666L17.05 26.5832L16.5 32.6332L13.5667 23.8332L30.4333 13.1999C31.1667 12.6499 31.9 13.0166 31.35 13.5666Z" fill="#FFFDFD"/>
</g>
<defs>
<clipPath id="clip0_303_3696">
<rect width="44" height="44" fill="white"/>
</clipPath>
</defs>
</svg>
